<svg id="Layer_1" data-name="Layer 1" xmlns="http://www.w3.org/2000/svg" viewBox="0 0 52.96 53.02"><path d="M5.17,15.78C2.77,12.42,3.65,8,6.46,5.17,9.59,2,14.15,1.29,18.4,1.55,26.05,2,34.1,6.73,34.71,15.08a10.76,10.76,0,0,1-.85,5.32c-.78,1.69-2.59,3.89-4.72,3.08-1.95-.75-2.07-3.41-1.67-5.1A14,14,0,0,1,30.25,13c2.46-3,6.29-4.93,10.2-4s5.83,4.33,6.85,7.85a33.2,33.2,0,0,1,1,12.7c-.48,4-2.28,8.41-6,10.44-3.38,1.83-7.84,1-9.4-2.79a5.06,5.06,0,0,1,.54-5,3.1,3.1,0,0,1,4.8-.36c2.25,2.67.94,7.28-.56,10a13.1,13.1,0,0,1-8.15,6.44C21.89,50.05,14.66,44,14,36.42a14.74,14.74,0,0,1,.63-5.75c.52-1.62,1.46-3.7,3.12-4.43,1.82-.8,3.06,1.19,3.14,2.78.11,2.1-1.19,4.23-2.5,5.79-2.63,3.11-6.71,5-10.78,3.88a8.84,8.84,0,0,1-6.07-7.52,9.09,9.09,0,0,1,.63-4.78C3,24.64.39,23.12-.39,24.88A12.7,12.7,0,0,0,1.18,37.75c3.31,4.27,9.2,5.29,14,3.18,4.54-2,9.24-7.29,8.65-12.55a5.86,5.86,0,0,0-4.43-5.25c-2.57-.47-4.76,1.31-6.1,3.33-2.77,4.14-3,10-1.33,14.58a15.87,15.87,0,0,0,10.38,9.81A15,15,0,0,0,36,48.25a16.59,16.59,0,0,0,6.36-12.4,8.77,8.77,0,0,0-2.23-6.43A6,6,0,0,0,33,28.59c-4.69,2.66-4.33,9.23-.91,12.72,3.79,3.86,9.91,3.11,13.78-.19,4.45-3.8,5.73-10.06,5.59-15.64-.13-5-.79-10.68-3.77-14.83A11.59,11.59,0,0,0,34.2,6.48,16.11,16.11,0,0,0,24.48,18c-.5,2.54-.07,5.45,2,7.24a5.75,5.75,0,0,0,7.14.17c4.22-3,4.89-9.21,3.51-13.84a17.69,17.69,0,0,0-9.92-11A24.62,24.62,0,0,0,11-.75C6,.66,1.55,4.61.86,10a10.34,10.34,0,0,0,1.72,7.33c1.12,1.55,3.72.06,2.59-1.51Z" transform="translate(1.47 1.54)"/></svg>