<svg id="Layer_1" data-name="Layer 1" xmlns="http://www.w3.org/2000/svg" viewBox="0 0 50.97 48.24"><path d="M4.13,34.09A12.78,12.78,0,0,1,7.7,17.63c2.12-1.54,5.13-2.82,7.78-2.1,3.54,1,3.17,5.14,1.93,7.78-2.72,5.82-9,10.39-8.36,17.44a8.6,8.6,0,0,0,4.26,7,14.5,14.5,0,0,0,8.79,1.12A21,21,0,0,0,36.46,40c1.65-2.41,3.15-5.71,1.41-8.47s-5.22-2.22-7.35-.3c-4.48,4-3.27,11.7,1.74,14.66,5.61,3.3,11.71-.07,14.59-5.28,3.3-6,4.19-13.52,3.38-20.23a38.07,38.07,0,0,0-7.8-19C41.24-.16,39.14,2,40.31,3.48a34.87,34.87,0,0,1,5.78,31C44.66,39.23,41,45.87,35,43.82a6.22,6.22,0,0,1-4.24-5.35c-.18-2,.88-5.75,3.44-5.94,1.43-.1,1.59,1.62,1.33,2.64A11.21,11.21,0,0,1,33.44,39,18.14,18.14,0,0,1,20.6,46c-2.58.17-5.82-.06-7.48-2.33-3.66-5,1.8-11.18,4.58-15.1,1.73-2.46,3.33-5.16,3.61-8.21a7.37,7.37,0,0,0-3.06-6.89C13.27,10.26,6.24,14,3,18A15.85,15.85,0,0,0,1.54,35.61c.93,1.69,3.52.18,2.59-1.52Z" transform="translate(0.46 -0.84)"/></svg>