<svg id="Layer_1" data-name="Layer 1" xmlns="http://www.w3.org/2000/svg" viewBox="0 0 45.38 51.57"><path d="M5.06,9.44A34.45,34.45,0,0,1,11.75,5C14,3.85,16.86,2.4,19.43,2.51a2.9,2.9,0,0,1,2.62,1.41c.57,1.29-.49,2.63-1.36,3.46-2.09,2-4.57,3.69-6.83,5.48-3.63,2.86-9.36,6.56-7.71,12.05,1.76,5.91,9.08,4.05,13.37,3a66.73,66.73,0,0,0,15.87-5.83c4.25-2.33,9-5.66,11.37-10,1.18-2.19,1.6-4.9.09-7A6.62,6.62,0,0,0,41,2.28c-5.64.42-8.35,6-10.27,10.53a72.29,72.29,0,0,0-5,36.86c.24,1.89,3.24,1.91,3,0a70.26,70.26,0,0,1,2.87-30.61,65,65,0,0,1,2.78-7.13c1-2.21,2.24-4.55,4.4-5.85,1.72-1,4.26-1.26,5.57.57,1.46,2-.59,4.75-1.94,6.25-6.88,7.56-17.22,10.68-26.88,12.85-2,.45-5.22,1-6.37-1.29S10,20,11.44,18.63c1.9-1.73,4-3.24,6-4.83s4.39-3.08,6.05-5.05,2.38-4.88.63-7.07c-1.61-2-4.27-2.43-6.69-2a27.39,27.39,0,0,0-7.6,2.9A37.59,37.59,0,0,0,2.94,7.31c-1.47,1.26.66,3.37,2.12,2.13Z" transform="translate(-2.44 0.47)"/></svg>