<svg id="Layer_1" data-name="Layer 1" xmlns="http://www.w3.org/2000/svg" viewBox="0 0 52.92 46.18"><path d="M-1.3,4.36C4.22,17.25,8.57,32.44,2.5,46c-.79,1.74,1.8,3.27,2.59,1.51,6.58-14.63,2.2-30.6-3.79-44.61C.54,1.08-2,2.61-1.3,4.36Z" transform="translate(1.43 -2.06)"/><path d="M8.39,29.33A50.41,50.41,0,0,1,24,17.42a48.78,48.78,0,0,1,9.09-3.34c3.15-.81,6.82-1.4,9.86.13C48.55,17,49.8,24.75,47.17,29.93c-3,5.81-9.86,7.86-16,7.17-8.4-.93-15.54-6.16-22.63-10.32a1.5,1.5,0,0,0-1.51,2.59c7.09,4.17,14.13,9.16,22.43,10.5,7.14,1.15,15.2-.71,19.44-7a15.59,15.59,0,0,0-1.26-18.79c-5.48-6-14.32-3.63-20.91-1.08A53,53,0,0,0,6.27,27.21c-1.27,1.44.84,3.57,2.12,2.12Z" transform="translate(1.43 -2.06)"/></svg>