<svg id="Layer_1" data-name="Layer 1" xmlns="http://www.w3.org/2000/svg" viewBox="0 0 48.28 22.32"><path d="M4.06,29.35c-.37-3.91,1.14-8.2,5.11-9.67S16.7,21.14,19.25,24s4.95,6.18,8.68,7.68a11.82,11.82,0,0,0,11-1.29c3.79-2.7,5.3-7.21,6.41-11.53.48-1.87-2.41-2.67-2.89-.8-1,3.79-2.21,8.15-5.82,10.24A9,9,0,0,1,26,27c-3.07-2.72-5.18-6.31-8.56-8.7a10,10,0,0,0-11-.63c-4,2.39-5.85,7.15-5.42,11.69.18,1.91,3.18,1.93,3,0Z" transform="translate(-1 -16.31)"/><path d="M8.31,30.4c-1.73-3.67,3-6.47,5.74-3.85,1.38,1.31,2.39,3,3.67,4.41a27.18,27.18,0,0,0,4.5,4c6.34,4.5,15.5,5.36,21.47-.28A19.93,19.93,0,0,0,49.25,23.5c.33-1.89-2.56-2.7-2.89-.79a17.2,17.2,0,0,1-5.07,10.11,12.71,12.71,0,0,1-11.4,2.45,20.54,20.54,0,0,1-10.32-6.73c-2.49-2.84-4.5-6.59-8.89-6.05a6.53,6.53,0,0,0-5,9.43c.82,1.74,3.41.22,2.59-1.52Z" transform="translate(-1 -16.31)"/></svg>