<svg id="Layer_1" data-name="Layer 1" xmlns="http://www.w3.org/2000/svg" viewBox="0 0 34.7 43.17"><path d="M27.19,4.88c.13,7.88.1,16.23-3.52,23.44-3.31,6.57-9.41,10.82-15.33,14.86-1.59,1.08-.09,3.68,1.51,2.59,6.33-4.32,12.88-8.91,16.41-15.94,3.88-7.72,4.07-16.5,3.93-24.95,0-1.93-3-1.93-3,0Z" transform="translate(-7.66 -3.43)"/><path d="M9.3,46.38q14.74-.3,29.49-.31a1.5,1.5,0,0,0,0-3q-14.74,0-29.49.31c-1.93,0-1.94,3,0,3Z" transform="translate(-7.66 -3.43)"/><path d="M28.62,7.06a45.52,45.52,0,0,1,10,37.66c-.36,1.89,2.53,2.7,2.89.8A48.7,48.7,0,0,0,30.74,4.94c-1.25-1.47-3.37.66-2.12,2.12Z" transform="translate(-7.66 -3.43)"/></svg>