<svg id="Layer_1" data-name="Layer 1" xmlns="http://www.w3.org/2000/svg" viewBox="0 0 46.89 47.28"><path d="M45.16,22.18C44.29,14.65,42.71,6.43,35.06,3,28-.26,19.24,1.05,12.78,5.16A25.21,25.21,0,0,0,1.36,24C.71,30.65,2.91,41.58,11.69,40.64c2.47-.27,4.76-1.26,7.16-1.82a25.16,25.16,0,0,1,7.74-.53c2.24.19,4.74.73,6.28,2.51,1.15,1.34,1.59,3.68-.07,4.85-1.13.79-.84,2.86.76,2.79,4.37-.19,9.22-.59,12.39-4a8.68,8.68,0,0,0,.37-11.11C43.68,29.66,39.24,28.1,35,27.08a56.36,56.36,0,0,0-15.26-1.5c-1.64.06-4.71.3-4.48-2.17s3.06-3.52,5-4.28c1.78-.69,1-3.59-.8-2.89-3.56,1.37-7.86,3.69-7.16,8.24.75,4.9,6.45,4,10,4.05a49.65,49.65,0,0,1,14.78,2.25c3.75,1.19,8.23,3.82,8.06,8.34-.21,5.57-7.57,6.14-11.64,6.32l.76,2.8a6.2,6.2,0,0,0,1.35-8.7c-2.32-3.3-6.45-4.18-10.25-4.32a28.48,28.48,0,0,0-6.45.51c-2,.4-3.95,1.14-5.94,1.63s-3.86.58-5.41-.72a8.66,8.66,0,0,1-2.5-4.2A22.21,22.21,0,0,1,9.45,12a22.5,22.5,0,0,1,19.4-7.66c4.2.5,8.13,2.47,10.3,6.2,2,3.51,2.55,7.71,3,11.67.22,1.89,3.22,1.91,3,0Z" transform="translate(-1.26 -1.16)"/></svg>