<svg id="Layer_1" data-name="Layer 1" xmlns="http://www.w3.org/2000/svg" viewBox="0 0 52.02 16.56"><path d="M1.41,29a201.26,201.26,0,0,0,23.74,2.58c3.9.2,7.8.35,11.7.34,3.38,0,7-.38,9.83-2.37a8.3,8.3,0,0,0,3.75-7.7,7.48,7.48,0,0,0-5.71-6c-3.41-1-7.21-.22-10.65.24-3.64.48-7.27,1.13-10.86,1.94a122.82,122.82,0,0,0-24,8.18c-1.75.8-.23,3.39,1.52,2.59A117,117,0,0,1,38.65,18.49c2.65-.25,6.08-.45,8,1.81s.37,5.41-1.8,6.83c-2.63,1.73-5.9,1.77-8.94,1.74-3.42,0-6.84-.14-10.26-.31A193.9,193.9,0,0,1,2.21,26.07c-1.89-.33-2.7,2.56-.8,2.89Z" transform="translate(1.53 -15.31)"/></svg>