<svg id="Layer_1" data-name="Layer 1" xmlns="http://www.w3.org/2000/svg" viewBox="0 0 34.81 49"><path d="M16.91,16.09a31.31,31.31,0,0,0,14.86,1c4-.7,9.37-2.39,9.94-7.17S37.91,2.36,34,1.28C29.66.11,24.74.1,20.76,2.36a11.53,11.53,0,0,0-5.94,9.75c0,4.54,3.5,7.91,6.76,10.6,3.62,3,7.78,5.64,10.37,9.65,2.2,3.39,3.17,8.43,0,11.58C28.42,47.4,22.29,47,18.16,45a15.21,15.21,0,0,1-8.3-11.38c-.3-1.9-3.2-1.1-2.89.8A18.08,18.08,0,0,0,24.24,49.49c4,.11,8.33-1.25,10.8-4.59s2.4-7.73.91-11.35c-1.66-4-4.87-7.08-8.21-9.76s-7.64-5.24-9.38-9.2C16.78,11,18.92,6.91,22.12,5c3.72-2.18,8.67-1.88,12.58-.38,1.94.74,4.18,2.37,4.06,4.7s-2.88,3.62-4.9,4.19a27.86,27.86,0,0,1-16.15-.36c-1.85-.59-2.64,2.31-.8,2.9Z" transform="translate(-6.95 -0.5)"/></svg>