<svg id="Layer_1" data-name="Layer 1" xmlns="http://www.w3.org/2000/svg" viewBox="0 0 52.95 52.9"><path d="M3.18,11C-.13,8.71,1.89,2.93,6.06,3.8c2.17.45,3.39,2.91,4.52,4.57,1.25,1.83,2.79,3.66,5,4.34,4.74,1.48,8.74-3.55,11.81-6.33,3.31-3,8.47-6.68,13-4C44.23,4.6,45.87,10.13,47,14.12a44.22,44.22,0,0,1,1.39,15.19A42.12,42.12,0,0,1,47,36.87a18.8,18.8,0,0,1-2.75,6.44A6,6,0,0,1,39.51,46c-2.18,0-3.31-1.41-3.79-3.42-.55-2.28-.78-4.84-2.69-6.47-2.07-1.75-4.82-1.19-6.88.26-4.44,3.11-7.61,8.33-9.67,13.24l2.89.8a31.73,31.73,0,0,0-1.09-23.57C15.87,21.75,11.17,17.62,7,14.06,5.72,13,4.47,12,3.18,11,1.63,9.88.13,12.48,1.67,13.62l.18.14.2.15.12.1c.68.53,1.34,1.07,2,1.61,1.94,1.61,3.82,3.29,5.6,5.07A33.26,33.26,0,0,1,15,27a24.32,24.32,0,0,1,3,9.7A29.81,29.81,0,0,1,16.48,49.6c-.65,1.87,2.17,2.52,2.89.8a32.32,32.32,0,0,1,4.06-7c1.43-1.88,3.45-4.59,5.83-5.28,2.76-.8,3.09,3.08,3.48,4.87.49,2.27,1.55,4.34,3.74,5.36,4.42,2.05,8.93-.81,11.13-4.65,2.64-4.61,3.56-10.44,3.83-15.67a46.74,46.74,0,0,0-2.08-16.36C48,7.21,45.89,1.72,41.43-.49,36.45-3,31-.49,27.05,2.71c-2.12,1.72-4,3.73-6.1,5.46a7.25,7.25,0,0,1-3.13,1.74,3.71,3.71,0,0,1-3.29-1.35c-2-2-3-4.75-5.26-6.48A6.67,6.67,0,0,0,2.19,1.5c-4.81,2.41-4.7,9.18-.52,12.12C3.25,14.73,4.75,12.13,3.18,11Z" transform="translate(1.44 1.5)"/></svg>