<svg id="Layer_1" data-name="Layer 1" xmlns="http://www.w3.org/2000/svg" viewBox="0 0 44.09 46.32"><path d="M2.91,4.74c2.87,8,12,11.57,19.94,11.5A26.72,26.72,0,0,0,44.38,4.76L41.64,3.6q-3,14.88-6,29.75c-.79,4-1.69,8.55-5.14,11.14a5.81,5.81,0,0,1-4.91,1.21,4.26,4.26,0,0,1-3.29-3.42L21.65,44a18,18,0,0,0,7.26-6.91c1.54-2.64,2.85-6.23,1.45-9.18-1.83-3.86-6.25-2.94-9.66-2.69A16.9,16.9,0,0,1,10.36,22.6a16.79,16.79,0,0,1-6.91-9.19c-.57-1.84-3.47-1.05-2.9.8a19.87,19.87,0,0,0,18.7,14c2.19,0,4.66-.89,6.8-.28s2.11,2.69,1.62,4.47a14.81,14.81,0,0,1-7.53,9,1.52,1.52,0,0,0-.69,1.69c.53,3.26,3.61,5.47,6.77,5.76,3.48.31,6.65-1.86,8.65-4.54C37.26,41.09,38,37,38.76,33.21l2.72-13.56L44.53,4.4a1.51,1.51,0,0,0-2.74-1.16,23.54,23.54,0,0,1-18.5,10C16.72,13.4,8.25,10.76,5.8,4c-.65-1.81-3.55-1-2.89.79Z" transform="translate(-0.48 -2.54)"/></svg>