<svg id="Layer_1" data-name="Layer 1" xmlns="http://www.w3.org/2000/svg" viewBox="0 0 47.42 46.94"><path d="M1.6,10.67A54.93,54.93,0,0,1,24.1,47.4a1.49,1.49,0,0,0,1.65,1.07A1.52,1.52,0,0,0,27.05,47c1.8-13.53,6.24-29.84,20.31-35.41,1.77-.7,1-3.6-.8-2.89A31.65,31.65,0,0,0,30.92,23c-4.13,7.36-5.77,15.75-6.87,24L27,46.6A57.86,57.86,0,0,0,3.12,8.08C1.53,7,0,9.56,1.6,10.67Z" transform="translate(-0.94 -1.55)"/><path d="M18.18,3.34c-4.16,2.2-7.51,6-7.53,10.89A12.21,12.21,0,0,0,14,22.58a11.94,11.94,0,0,0,8.83,3.5c5.75,0,12.2-3,14.73-8.42S37.71,7,33.08,3.86a14.56,14.56,0,0,0-14.9-.52c-1.72.9-.2,3.49,1.51,2.59a11.57,11.57,0,0,1,10.73-.19c3.15,1.74,5.9,4.9,5.1,8.74-1,4.72-5.65,7.43-10,8.33a10.55,10.55,0,0,1-8-1.23,9.14,9.14,0,0,1-3.67-5.88C13,11.22,16,7.88,19.69,5.93,21.4,5,19.88,2.44,18.18,3.34Z" transform="translate(-0.94 -1.55)"/></svg>