<svg id="Layer_1" data-name="Layer 1" xmlns="http://www.w3.org/2000/svg" viewBox="0 0 52.89 52.96"><path d="M-1.3,42.91C0,45.84,1.44,49,4.41,50.59a6.24,6.24,0,0,0,7.63-1,8.63,8.63,0,0,0,1.86-7.46c-.62-3.26-2.87-5.94-5-8.39-1.26-1.49-3.31.64-2.12,2.12,2.26,2.8,4.66,5.77,8,7.33,2.88,1.35,6.54,1.64,9.31-.15s4-5,4.05-8.14c.09-3.92-1.74-7.56-3.48-11-.76-1.49-3.38-.44-2.74,1.16,2.37,5.92,9.46,8.86,15,5,6.44-4.47,5-12.91,2.82-19.27a1.5,1.5,0,0,0-2.89.79,7,7,0,0,0,5.39,5.09A7.28,7.28,0,0,0,49.39,14C53.23,9.1,51.46,1.69,46.14-1.3c-1.68-.94-3.2,1.65-1.51,2.6a7.44,7.44,0,0,1,2.8,10.26,4.51,4.51,0,0,1-4.28,2.34,4,4,0,0,1-3.41-3l-2.89.79c1.62,4.77,3.52,11.53-.9,15.45a7,7,0,0,1-11.11-2.8L22.1,25.49c1.39,2.72,2.93,5.61,3.06,8.73.1,2.41-.61,5.2-2.87,6.47s-5.08.59-7.16-.69c-2.5-1.54-4.38-4-6.2-6.21L6.81,35.91c2.45,2.87,6.2,7.57,3.29,11.4-1.28,1.67-3.43,1.34-5,.2-1.95-1.44-2.92-4-3.84-6.11C.53,39.63-2,41.15-1.3,42.91Z" transform="translate(1.43 1.5)"/></svg>