<svg id="Layer_1" data-name="Layer 1" xmlns="http://www.w3.org/2000/svg" viewBox="0 0 26.55 48.56"><path d="M12.37,21.81A57,57,0,0,0,11.52,33a38.91,38.91,0,0,0,1.32,10.25C13.71,46.11,15.77,49,19,49.1c3,.07,4.75-2.57,5.29-5.22a43.94,43.94,0,0,0,.35-11c-.19-3.67-.52-7.33-.57-11a40.06,40.06,0,0,1,1-10.75c.68-2.62,1.9-6.81,5-7.55,3.54-.85,4.07,4.42,4.36,6.76A78,78,0,0,1,35,23.4c-.09,1.93,2.91,1.93,3,0a77.63,77.63,0,0,0-.33-11.61c-.29-2.85-.49-6.12-2.12-8.59a5.67,5.67,0,0,0-7.28-2.1c-2.85,1.29-4.36,4.31-5.34,7.12C20.51,15,21,22.41,21.47,29.48a91.16,91.16,0,0,1,.23,11.21c-.13,2-.72,7-3.9,5-1.47-.92-2-2.77-2.38-4.36a40.54,40.54,0,0,1-.79-5.91,53.1,53.1,0,0,1,.64-12.78c.32-1.89-2.57-2.7-2.9-.8Z" transform="translate(-11.5 -0.54)"/></svg>