<svg id="Layer_1" data-name="Layer 1" xmlns="http://www.w3.org/2000/svg" viewBox="0 0 52.05 26.29"><path d="M1.26,15.8A11.37,11.37,0,0,1,13,17.53a16.31,16.31,0,0,1,5.34,7.71,7.93,7.93,0,0,1-.95,6.91,5,5,0,0,1-5.51,2c-5-1.61-2.13-8.71.09-11.5a13.88,13.88,0,0,1,11.53-5.35A14.18,14.18,0,0,1,34.77,24c1.25,2.14,2,5,1,7.37-.85,1.9-3.19,3.53-5.29,2.64s-3-3.67-2.73-5.9a16.61,16.61,0,0,1,3-7.09,16.76,16.76,0,0,1,8.41-6.52,12.32,12.32,0,0,1,9.55,1.28c1.7.91,3.22-1.68,1.52-2.6-3.54-1.89-7.81-2.84-11.72-1.62A19.94,19.94,0,0,0,28.4,19.22c-3.34,4.7-6.11,12.79-.33,16.87a6.66,6.66,0,0,0,8-.41,8.68,8.68,0,0,0,3.06-8.19c-.82-6.06-5.94-10.86-11.63-12.55a16.61,16.61,0,0,0-16,3.87c-3.9,3.62-7.61,11.2-3.66,16a7.47,7.47,0,0,0,7.41,2.3,8.77,8.77,0,0,0,6-5.73C23.12,26,20.12,20.27,16.36,16.5A14.74,14.74,0,0,0-.26,13.2C-2,14-.5,16.55,1.26,15.8Z" transform="translate(1.04 -11.03)"/></svg>