<svg id="Layer_1" data-name="Layer 1" xmlns="http://www.w3.org/2000/svg" viewBox="0 0 38.52 44.53"><path d="M38.38,2.32A44,44,0,0,0,12.75,6.17C11.05,7,9.27,8,8.51,9.83a3.89,3.89,0,0,0,1.27,4.8C11.48,15.76,14,15.71,16,16l7.46,1.06c1.86.27,2.72-2.51.79-2.89a16.15,16.15,0,0,0-18.33,22C10.85,48,26.75,49,36.1,41.91c5.43-4.12,8.4-11.16,6.5-17.86a1.51,1.51,0,0,0-2.9.8,13.67,13.67,0,0,1-3.92,13.41,19.45,19.45,0,0,1-13.52,5.15c-5,0-9.87-2.07-12.57-6.39a13.17,13.17,0,0,1,13.73-20l.79-2.89c-3.8-.54-7.64-1-11.42-1.63-.56-.1-1.49-.16-1.64-.84s.45-1.3.89-1.66A17.6,17.6,0,0,1,16.7,7.68,40.67,40.67,0,0,1,37.58,5.22c1.89.28,2.7-2.61.8-2.9Z" transform="translate(-4.65 -1.83)"/></svg>