<svg id="Layer_1" data-name="Layer 1" xmlns="http://www.w3.org/2000/svg" viewBox="0 0 44.93 43.89"><path d="M9.14,3.55a15.27,15.27,0,0,0-3,20.23c2,3,5.11,5.72,5.11,9.57a7.55,7.55,0,0,1-6.54,7.42c-1.9.31-1.09,3.2.8,2.89a10.53,10.53,0,0,0,8.05-6.55c1.49-3.89.34-7.79-2-11s-4.87-6.14-5-10.39a12.34,12.34,0,0,1,4.75-10c1.51-1.21-.63-3.32-2.12-2.12Z" transform="translate(-3.56 -3.19)"/><path d="M18.89,4.53c-2.76,2.94-5.49,6.91-4.35,11.17.55,2.06,2.05,3.52,3.51,5a13.2,13.2,0,0,1,3.38,5.42,12.54,12.54,0,0,1-2.87,12.26c-1.37,1.43-3.06,3-2.48,5.22.49,1.85,2.29,2.63,4,2.88,8.31,1.17,19.14,1.34,25-5.79,5.72-6.92,3.26-17-1-24C39.11,8.49,29.73,2.82,20,4.09c-1.88.24-1.91,3.24,0,3,7.5-1,14.92,2.51,19.62,8.29,4.37,5.37,8,14.3,4.79,21C40.72,44,31,44.37,23.78,43.81c-1-.08-2-.13-3-.26-.46-.06-1.58-.14-1.8-.67s.77-1.47,1.15-1.84a18.87,18.87,0,0,0,1.94-2.25,15.37,15.37,0,0,0,2.81-10.71A15.81,15.81,0,0,0,23,22.17a24.32,24.32,0,0,0-3.89-4.69,5.39,5.39,0,0,1-1.4-5.91A14.34,14.34,0,0,1,21,6.65c1.32-1.41-.79-3.54-2.12-2.12Z" transform="translate(-3.56 -3.19)"/></svg>