<svg id="Layer_1" data-name="Layer 1" xmlns="http://www.w3.org/2000/svg" viewBox="0 0 52.96 33.88"><path d="M-.4,36.05C3.09,36.59,6,34.27,7,31c1.09-3.63-.26-7.23-.66-10.85a10.08,10.08,0,0,1,2.86-8.42A9.28,9.28,0,0,1,17.24,9a10.18,10.18,0,0,1,7.07,4.72A10,10,0,0,1,22.25,25.9a4.51,4.51,0,0,1-2,1.18c-.5.08-1.27,0-1.06-.68.52-1.65,4-.27,5,.14a22.3,22.3,0,0,1,4.72,2.81c6.43,4.78,12.6,12.15,21.55,10.16,1.88-.42,1.09-3.31-.8-2.89-8.91,2-15.25-7.84-22.06-11.72-3-1.7-8.72-4-11,0a3.44,3.44,0,0,0,1.16,4.63,5,5,0,0,0,5.32-.47,12.88,12.88,0,0,0,2.49-18.71A12.71,12.71,0,0,0,6.8,9.85c-3.1,3.29-4,7.44-3.28,11.82.37,2.37,1.07,4.72.83,7.14-.19,2-1.54,4.72-3.95,4.35-1.89-.29-2.7,2.6-.8,2.89Z" transform="translate(1.49 -5.96)"/></svg>