<svg id="Layer_1" data-name="Layer 1" xmlns="http://www.w3.org/2000/svg" viewBox="0 0 34.49 51.93"><path d="M9.76,5.23A19.36,19.36,0,0,1,24.86,2a19.05,19.05,0,0,1,12.19,8.49c2.75,4.51,2.88,10-1,13.88s-9.67,4.45-14.67,3.05c-2.2-.62-4.67-1.8-5.59-4.05A6.54,6.54,0,0,1,17,17c3.25-4,9.91-4.22,14.42-2.62,4.76,1.68,8.43,7,5.61,11.87S28.36,32.71,24.27,36a12.69,12.69,0,0,0-4.66,6.67c-.56,2.42-.08,5.24,2.06,6.75,2.38,1.68,5.85,1.12,8.48.43a21,21,0,0,0,7.91-4.12c1.49-1.22-.64-3.33-2.12-2.12a17.46,17.46,0,0,1-8.19,3.69,7.44,7.44,0,0,1-3.92-.08,2.9,2.9,0,0,1-1.43-3.16c.27-2.64,2.44-4.82,4.48-6.31,2.66-2,5.72-3.3,8.37-5.27,4.55-3.4,7.28-8.64,4.8-14.18s-8.75-7.93-14.49-7.79c-5.5.14-11.45,2.82-12.85,8.61a8.43,8.43,0,0,0,1.46,7.28,12.44,12.44,0,0,0,7,4c5.7,1.42,12.05.55,16.52-3.46A13.42,13.42,0,0,0,41,11.73,21.64,21.64,0,0,0,27.16-.52,22.21,22.21,0,0,0,8.24,2.64c-1.57,1.1-.07,3.7,1.52,2.59Z" transform="translate(-7.58 1.4)"/></svg>