<svg id="Layer_1" data-name="Layer 1" xmlns="http://www.w3.org/2000/svg" viewBox="0 0 45.08 41.19"><path d="M27.3,15,14.12,26.86a1.51,1.51,0,0,0,.66,2.51C23.9,32.29,36,35.43,43.62,27.52c3.07-3.16,4.73-7.81,3.48-12.15C45.77,10.78,41.88,7.61,37.55,6,28.28,2.42,17.31,5,10.24,11.86c-6.64,6.41-10.9,17.93-5,26.2,3.21,4.5,8.6,6.41,13.87,7.15A38.06,38.06,0,0,0,37,43.43c1.81-.64,1-3.54-.8-2.9a35.37,35.37,0,0,1-13.72,2c-4.13-.22-8.56-1.07-12-3.46-7.66-5.3-5.28-16.22-.39-22.54A23.73,23.73,0,0,1,32.1,7.64c4,.6,8.2,2.21,10.63,5.58a9.08,9.08,0,0,1,0,10.72c-2.58,3.8-7.23,5.43-11.65,5.6-5.33.21-10.47-1.46-15.47-3.06L16.24,29,29.43,17.16c1.44-1.29-.69-3.4-2.13-2.12Z" transform="translate(-2.44 -4.38)"/></svg>