<svg id="Layer_1" data-name="Layer 1" xmlns="http://www.w3.org/2000/svg" viewBox="0 0 43.02 49.53"><path d="M3.72,17.39A98,98,0,0,1,18.88,2.77l-2.25-1.3-2,24.9a1.51,1.51,0,0,0,2.56,1.06L27.51,15.9l2.67-3c.24-.26,1.71-2.25,2.17-2.06.21.09.37,1.44.42,1.64l.46,1.94.87,3.64L41.3,48.4c.45,1.88,3.34,1.08,2.9-.8L37.85,20.93,36.3,14.38c-.42-1.77-.55-4.4-1.92-5.74s-3.19-.77-4.49.27a43.35,43.35,0,0,0-4.5,4.87L15,25.31l2.56,1.06,2-24.9A1.51,1.51,0,0,0,17.37.18,101.42,101.42,0,0,0,1.6,15.27c-1.24,1.47.88,3.6,2.12,2.12Z" transform="translate(-1.22 0.06)"/></svg>