<svg id="Layer_1" data-name="Layer 1" xmlns="http://www.w3.org/2000/svg" viewBox="0 0 53.03 37.54"><path d="M1.06,43.39c4.73-4.15,7.42-10.33,9.91-16A131.51,131.51,0,0,0,17.8,8.07c.51-1.9-2.22-2.57-2.89-.79a60.35,60.35,0,0,0-3.54,14.45c-.47,4.06,0,8.59,3.81,11,3.54,2.22,8.09,1.49,11.49-.6a29.56,29.56,0,0,0,8.92-9.43A37.39,37.39,0,0,0,40.9,9,1.5,1.5,0,0,0,38,8.22a112.49,112.49,0,0,0-4.13,12.52C33,24.37,31.65,29,33.61,32.46a8.41,8.41,0,0,0,8,3.84c3.8-.31,6.94-2.74,9.46-5.42,1.32-1.4-.79-3.53-2.12-2.12-2,2.14-4.58,4.41-7.68,4.56-2.6.13-5.16-1.22-5.57-4a14.08,14.08,0,0,1,.41-4.83c.35-1.77.79-3.52,1.28-5.26,1-3.47,2.24-6.87,3.52-10.25L38,8.22A34.47,34.47,0,0,1,27.62,27.61C25,30,21.51,31.88,18,30.69s-4-5.25-3.62-8.57a56.24,56.24,0,0,1,3.47-14l-2.89-.79A126.46,126.46,0,0,1,8.38,25.9C6,31.3,3.47,37.29-1.06,41.27c-1.45,1.27.67,3.39,2.12,2.12Z" transform="translate(1.55 -6.24)"/></svg>